<?xml version="1.0" encoding="utf-8"?>
<!-- Generator: Adobe Illustrator 15.1.0, SVG Export Plug-In . SVG Version: 6.00 Build 0)  -->
<!DOCTYPE svg PUBLIC "-//W3C//DTD SVG 1.1//EN" "http://www.w3.org/Graphics/SVG/1.1/DTD/svg11.dtd">
<svg version="1.1" id="Layer_1" xmlns="http://www.w3.org/2000/svg" xmlns:xlink="http://www.w3.org/1999/xlink" x="0px" y="0px"
	 width="963.779px" height="396.851px" viewBox="0 0 963.779 396.851" enable-background="new 0 0 963.779 396.851"
	 xml:space="preserve">
<g>
	<g>
		<defs>
			<path id="SVGID_1_" d="M237.104,354.324c-1.376-23.733-64.861-23.733-64.861-23.733c32.602-3.307,59.382-6.835,59.933-21.97
				c0.434-15.168-65.167-16.605-65.167-16.605H39.218L8.462,391.224h113.39C241.153,392.146,237.104,354.324,237.104,354.324z
				 M90.159,380.328l14.416-43.984c16.052,0.126,53.788-1.828,53.833,17.323C158.407,385.095,90.159,380.328,90.159,380.328z
				 M107.607,324.741l6.929-22.466c0,0,47.094-1.784,47.094,10.13C161.629,312.405,164.051,326.008,107.607,324.741z"/>
		</defs>
		<clipPath id="SVGID_2_">
			<use xlink:href="#SVGID_1_"  overflow="visible"/>
		</clipPath>
		
			<radialGradient id="SVGID_3_" cx="-2751.3237" cy="5454.7148" r="2216.7292" gradientTransform="matrix(0.3289 0.2598 -0.1058 0.134 1951.5603 152.3996)" gradientUnits="userSpaceOnUse">
			<stop  offset="0" style="stop-color:#CA974E"/>
			<stop  offset="0.5273" style="stop-color:#EAC17D"/>
			<stop  offset="1" style="stop-color:#C08329"/>
		</radialGradient>
		<polygon clip-path="url(#SVGID_2_)" fill="url(#SVGID_3_)" points="688.365,934.874 -326.797,133.181 250.736,-597.974 
			1265.867,203.909 		"/>
	</g>
	<g>
		<defs>
			<path id="SVGID_4_" d="M266.137,391.538c0,0,21.747-73.144,24.696-79.977c1.605-3.739,7.64-16.248,50.624-18.569l146.865-2.146
				l-3.534,12.787l-93.393,0.188c0,0-23.813-2.521-25.751,19.654l92.624,0.453l-3.346,13.102l-93.375,0.704l-16.856,53.805H266.137z
				"/>
		</defs>
		<clipPath id="SVGID_5_">
			<use xlink:href="#SVGID_4_"  overflow="visible"/>
		</clipPath>
		
			<radialGradient id="SVGID_6_" cx="-2751.3237" cy="5454.7148" r="2216.7292" gradientTransform="matrix(0.3289 0.2598 -0.1058 0.134 1951.5603 152.3996)" gradientUnits="userSpaceOnUse">
			<stop  offset="0" style="stop-color:#CA974E"/>
			<stop  offset="0.5273" style="stop-color:#EAC17D"/>
			<stop  offset="1" style="stop-color:#C08329"/>
		</radialGradient>
		<polygon clip-path="url(#SVGID_5_)" fill="url(#SVGID_6_)" points="688.365,934.874 -326.797,133.181 250.736,-597.974 
			1265.867,203.909 		"/>
	</g>
	<g>
		<defs>
			<polygon id="SVGID_7_" points="573.127,391.538 494.542,391.538 525.816,290.846 604.4,290.846 			"/>
		</defs>
		<clipPath id="SVGID_8_">
			<use xlink:href="#SVGID_7_"  overflow="visible"/>
		</clipPath>
		
			<radialGradient id="SVGID_9_" cx="-2751.3237" cy="5454.7148" r="2216.7292" gradientTransform="matrix(0.3289 0.2598 -0.1058 0.134 1951.5603 152.3996)" gradientUnits="userSpaceOnUse">
			<stop  offset="0" style="stop-color:#CA974E"/>
			<stop  offset="0.5273" style="stop-color:#EAC17D"/>
			<stop  offset="1" style="stop-color:#C08329"/>
		</radialGradient>
		<polygon clip-path="url(#SVGID_8_)" fill="url(#SVGID_9_)" points="688.365,934.874 -326.797,133.181 250.736,-597.974 
			1265.867,203.909 		"/>
	</g>
	<g>
		<defs>
			<path id="SVGID_10_" d="M61.889,238.59c0,0,531.173-233.856,815.259,152.948C877.148,391.538,670.773,74.782,61.889,238.59z"/>
		</defs>
		<clipPath id="SVGID_11_">
			<use xlink:href="#SVGID_10_"  overflow="visible"/>
		</clipPath>
		
			<radialGradient id="SVGID_12_" cx="-2751.3237" cy="5454.7148" r="2216.7292" gradientTransform="matrix(0.3289 0.2598 -0.1058 0.134 1951.5603 152.3996)" gradientUnits="userSpaceOnUse">
			<stop  offset="0" style="stop-color:#CA974E"/>
			<stop  offset="0.5273" style="stop-color:#EAC17D"/>
			<stop  offset="1" style="stop-color:#C08329"/>
		</radialGradient>
		<polygon clip-path="url(#SVGID_11_)" fill="url(#SVGID_12_)" points="688.365,934.874 -326.797,133.181 250.736,-597.974 
			1265.867,203.909 		"/>
	</g>
	<g>
		<defs>
			<path id="SVGID_13_" d="M954.106,5.313c-17.588,2.064-28.579,2.159-43.986,4.396C712.819,38.352,685.09,82.083,684.112,84.037
				c-3.175,0.879-81.87,21.126-104.73,28.818l-38.134-17.841l76.428-45.438c0,0-183.86-46.106-195.212-28.737
				c0,0-15.837,13.184,118.597,74.239c-3.67,2.142-86.291,51.284-87.309,54.32c0,0,78.103-21.611,125.631-36.523
				c2.315,0.981,65.08,29.595,101.601,29.095c0,0,33.01,3.41,17.167-29.114l-15.055-17.752c0,0-0.751-8.233,1.196-10.983
				c32.248-7.591,61.361-17.845,86.535-24.005C850.77,40.399,896.47,29.235,922.414,21.12
				C964.835,7.847,954.106,5.313,954.106,5.313z"/>
		</defs>
		<clipPath id="SVGID_14_">
			<use xlink:href="#SVGID_13_"  overflow="visible"/>
		</clipPath>
		
			<radialGradient id="SVGID_15_" cx="-2751.3237" cy="5454.7148" r="2216.7292" gradientTransform="matrix(0.3289 0.2598 -0.1058 0.134 1951.5603 152.3996)" gradientUnits="userSpaceOnUse">
			<stop  offset="0" style="stop-color:#CA974E"/>
			<stop  offset="0.5273" style="stop-color:#EAC17D"/>
			<stop  offset="1" style="stop-color:#C08329"/>
		</radialGradient>
		<polygon clip-path="url(#SVGID_14_)" fill="url(#SVGID_15_)" points="688.365,934.874 -326.797,133.181 250.736,-597.974 
			1265.867,203.909 		"/>
	</g>
	<g>
		<defs>
			<path id="SVGID_16_" d="M689.583,44.472c19.859-4.197,34.357-14.345,32.602-22.569c-1.784-8.365-19.154-11.679-38.88-7.49
				c-19.724,4.19-34.218,14.343-32.576,22.646C652.465,45.342,670.002,48.668,689.583,44.472z"/>
		</defs>
		<clipPath id="SVGID_17_">
			<use xlink:href="#SVGID_16_"  overflow="visible"/>
		</clipPath>
		
			<radialGradient id="SVGID_18_" cx="-2751.3237" cy="5454.7148" r="2216.7292" gradientTransform="matrix(0.3289 0.2598 -0.1058 0.134 1951.5603 152.3996)" gradientUnits="userSpaceOnUse">
			<stop  offset="0" style="stop-color:#CA974E"/>
			<stop  offset="0.5273" style="stop-color:#EAC17D"/>
			<stop  offset="1" style="stop-color:#C08329"/>
		</radialGradient>
		<polygon clip-path="url(#SVGID_17_)" fill="url(#SVGID_18_)" points="688.365,934.874 -326.797,133.181 250.736,-597.974 
			1265.867,203.909 		"/>
	</g>
</g>
</svg>
